HIERARCHY
ROOT root
{
	OFFSET 0.000000 0.000000 0.000000
	CHANNELS 6 Xposition Yposition Zposition Zrotation Yrotation Xrotation
	JOINT lhip
	{
		OFFSET 0.058581 -0.082280 -0.017664
		CHANNELS 3 Zrotation Yrotation Xrotation
		JOINT lknee
		{
			OFFSET 0.043451 -0.386469 0.008037
			CHANNELS 3 Zrotation Yrotation Xrotation
			JOINT lankle
			{
				OFFSET -0.014790 -0.426874 -0.037428
				CHANNELS 3 Zrotation Yrotation Xrotation
				JOINT ltoe
				{
					OFFSET 0.041054 -0.060286 0.122042
					CHANNELS 3 Zrotation Yrotation Xrotation
					End Site
					{
						OFFSET 0.000000 0.000000 0.000000
					}
				}
			}
		}
	}
	JOINT rhip
	{
		OFFSET -0.060310 -0.090513 -0.013543
		CHANNELS 3 Zrotation Yrotation Xrotation
		JOINT rknee
		{
			OFFSET -0.043257 -0.383688 -0.004843
			CHANNELS 3 Zrotation Yrotation Xrotation
			JOINT rankle
			{
				OFFSET 0.019056 -0.420046 -0.034562
				CHANNELS 3 Zrotation Yrotation Xrotation
				JOINT rtoe
				{
					OFFSET -0.034840 -0.062106 0.130323
					CHANNELS 3 Zrotation Yrotation Xrotation
					End Site
					{
						OFFSET 0.000000 0.000000 0.000000
					}
				}
			}
		}
	}
	JOINT lowerback
	{
		OFFSET 0.004439 0.124404 -0.038385
		CHANNELS 3 Zrotation Yrotation Xrotation
		JOINT upperback
		{
			OFFSET 0.004488 0.137956 0.026820
			CHANNELS 3 Zrotation Yrotation Xrotation
			JOINT chest
			{
				OFFSET -0.002265 0.056032 0.002855
				CHANNELS 3 Zrotation Yrotation Xrotation
				JOINT lowerneck
				{
					OFFSET -0.013390 0.211636 -0.033468
					CHANNELS 3 Zrotation Yrotation Xrotation
					JOINT upperneck
					{
						OFFSET 0.010113 0.088937 0.050410
						CHANNELS 3 Zrotation Yrotation Xrotation
						End Site
						{
							OFFSET 0.000000 0.000000 0.000000
						}
					}
				}
				JOINT lclavicle
				{
					OFFSET 0.071702 0.114000 -0.018898
					CHANNELS 3 Zrotation Yrotation Xrotation
					JOINT lshoulder
					{
						OFFSET 0.122921 0.045205 -0.019046
						CHANNELS 3 Zrotation Yrotation Xrotation
						JOINT lelbow
						{
							OFFSET 0.255332 -0.015649 -0.022946
							CHANNELS 3 Zrotation Yrotation Xrotation
							JOINT lwrist
							{
								OFFSET 0.265709 0.012698 -0.007375
								CHANNELS 3 Zrotation Yrotation Xrotation
								End Site
								{
									OFFSET 0.000000 0.000000 0.000000
								}
							}
						}
					}
				}
				JOINT rclavicle
				{
					OFFSET -0.082954 0.112472 -0.023707
					CHANNELS 3 Zrotation Yrotation Xrotation
					JOINT rshoulder
					{
						OFFSET -0.113228 0.046853 -0.008472
						CHANNELS 3 Zrotation Yrotation Xrotation
						JOINT relbow
						{
							OFFSET -0.260127 -0.014369 -0.031269
							CHANNELS 3 Zrotation Yrotation Xrotation
							JOINT rwrist
							{
								OFFSET -0.269108 0.006794 -0.006027
								CHANNELS 3 Zrotation Yrotation Xrotation
								End Site
								{
									OFFSET 0.000000 0.000000 0.000000
								}
							}
						}
					}
				}
			}
		}
	}
}
MOTION
Frames: 8
Frame Time: 0.033333
2.367189 0.687471 0.996691 -84.472262 1.019126 80.930318 -1.121405 -2.614312 4.456023 -0.653389 -13.376554 3.689062 2.802418 9.022488 -11.131402 0.000000 -0.000000 0.000000 0.365673 -4.133090 4.007924 -3.018223 -0.388751 6.912760 0.895768 -11.200158 -12.596707 0.000000 -0.000000 0.000000 0.606772 2.535689 11.519106 -0.637345 -2.096501 5.348809 0.198457 0.768448 -2.286618 5.061678 12.712227 -1.335625 8.162089 15.597759 20.492800 -29.372624 -7.628859 2.918971 -51.353327 -10.858917 11.621920 5.502257 -16.353411 6.865385 -2.626529 -1.744293 -1.454210 24.850288 7.747832 4.832984 57.671731 6.666060 20.178223 -3.306145 26.848774 9.296899 1.289807 2.624023 1.700361 
2.370356 0.688253 0.994766 -85.439535 0.135381 81.619894 -2.047245 -2.826179 3.501639 -0.643791 -12.454001 3.783871 3.065982 9.478355 -10.929675 0.000000 -0.000000 0.000000 -0.235870 -2.762520 1.765329 -3.422824 -0.755085 9.244442 0.934762 -10.843650 -13.047446 0.000000 -0.000000 0.000000 -0.047869 2.894283 11.233681 -0.984551 -1.288054 4.697373 -0.049447 0.703561 -1.848215 5.483451 14.628207 -1.366016 8.351886 16.494237 20.518601 -28.832871 -7.389210 2.388590 -50.575774 -9.889442 11.759688 3.709456 -19.799700 6.522155 -4.440608 -4.068820 -0.276463 24.876738 8.145383 5.227608 58.112335 7.136835 20.302739 -4.043522 26.633076 8.626853 3.327136 3.185888 2.361847 
2.372152 0.689344 0.993725 -85.683589 -0.173813 82.011847 -2.302724 -2.950550 2.817021 -0.776932 -12.074377 4.071691 3.055209 9.664478 -10.815561 0.000000 -0.000000 0.000000 -0.542038 -2.074644 0.989694 -3.431639 -1.034077 9.691826 1.200049 -10.956014 -13.058876 0.000000 -0.000000 0.000000 -0.175460 3.304761 11.245999 -1.171832 -1.064202 3.920731 0.046684 0.662323 -1.561328 5.305605 15.529962 -0.817973 8.326721 17.391273 20.147801 -28.558896 -7.134193 2.305468 -51.229740 -9.685424 11.846727 4.182797 -20.792459 5.785145 -3.922816 -3.998255 -0.113036 24.606153 8.100963 5.445849 58.422295 7.275666 20.152011 -3.870085 26.523179 8.693998 3.681978 3.480355 2.153334 
2.372024 0.689247 0.993514 -85.448497 -0.239978 82.090095 -2.321492 -2.933814 2.641219 -0.992664 -12.197560 4.257511 2.947153 9.572430 -10.733888 0.000000 -0.000000 0.000000 -0.751253 -2.187199 0.963574 -3.356819 -1.181585 9.754862 1.291411 -11.029533 -13.006925 0.000000 -0.000000 0.000000 -0.024402 3.587620 10.956685 -1.243605 -1.009235 3.774802 -0.026894 0.614484 -1.396592 5.123321 16.216867 -0.534207 8.134389 18.222661 20.166282 -28.346495 -6.972112 2.180063 -51.544056 -9.649048 12.343806 4.379625 -20.762759 6.207284 -3.661133 -3.997750 0.396192 24.546652 7.846035 5.610032 58.536360 7.348292 20.289633 -3.795608 26.345130 8.710603 3.790521 3.183696 2.286545 
2.372528 0.689419 0.993836 -85.315275 -0.229960 82.070695 -2.277468 -2.872335 2.509084 -1.023824 -12.182566 4.400688 3.011264 9.654296 -10.728723 0.000000 -0.000000 0.000000 -0.788475 -2.088027 0.928976 -3.321690 -1.335542 9.869245 1.339036 -11.167378 -13.018511 0.000000 -0.000000 0.000000 -0.102437 3.693402 10.786930 -1.140160 -0.946007 4.034027 0.010050 0.732604 -1.485035 5.040202 16.454956 -0.276563 7.983840 18.236738 19.865520 -28.184929 -6.969424 2.068277 -51.773239 -9.638493 12.652147 4.341640 -20.712709 6.768182 -3.557395 -4.202297 1.085316 24.609506 7.954881 5.805861 58.436405 7.351407 20.067725 -3.911904 26.233688 8.366866 3.341208 3.413566 2.409691 
2.372869 0.689313 0.994401 -85.044911 -0.223084 81.976494 -2.281528 -2.912345 2.447939 -1.078425 -12.103258 4.575187 2.761703 9.567291 -10.619603 0.000000 -0.000000 0.000000 -0.895414 -1.976423 1.056056 -3.206074 -1.532169 9.905589 1.451955 -11.347102 -13.132688 0.000000 -0.000000 0.000000 -0.053402 3.771816 10.831010 -1.141324 -1.016541 4.061297 0.020953 0.773553 -1.533100 4.871141 16.927286 0.100462 7.794600 18.457583 19.363276 -28.091286 -6.834443 2.109469 -51.817043 -9.491130 12.619417 4.258495 -20.792493 6.923473 -4.062915 -4.121640 1.338226 24.733420 8.051539 5.906729 58.272665 7.214183 19.900018 -4.026831 26.338323 8.263931 3.355519 3.380497 2.556162 
2.373419 0.689726 0.995163 -84.993414 -0.213535 81.961857 -2.233468 -2.973732 2.404039 -1.113537 -12.075432 4.600776 2.653424 9.681544 -10.709621 0.000000 -0.000000 0.000000 -0.890033 -1.843420 0.937370 -3.213445 -1.652701 10.213120 1.377443 -11.429915 -13.092150 0.000000 -0.000000 0.000000 -0.170288 3.884768 10.792054 -1.074922 -0.904447 4.086545 0.079592 0.835736 -1.584638 4.804984 17.112198 0.327439 7.581966 18.557570 18.955979 -28.175950 -6.617420 1.970942 -51.672839 -9.286454 12.650204 4.236052 -21.046618 6.692730 -3.980514 -4.031144 1.424978 24.997194 8.120255 6.019702 57.874208 7.238649 19.835701 -3.888410 26.284901 8.260242 3.575440 3.296639 2.731718 
2.375468 0.690201 0.994659 -85.341793 -0.376319 81.916921 -2.316869 -2.926123 2.297791 -1.253454 -11.867352 4.608202 2.591412 9.930160 -10.234370 0.000000 -0.000000 0.000000 -0.962556 -0.970885 0.445542 -3.205586 -1.832935 10.926413 1.287015 -11.637326 -13.224119 0.000000 -0.000000 0.000000 -0.169279 3.831912 11.711616 -1.248028 -0.274337 2.910074 0.099446 0.971650 -1.128777 4.531995 17.211021 0.295636 7.337426 18.634405 18.217830 -27.935115 -6.447769 1.705684 -51.941677 -9.362243 12.368834 4.054891 -20.986241 6.045104 -5.258164 -3.727338 0.423723 24.608580 8.153655 5.870363 58.261740 7.335090 20.006558 -3.947681 26.291594 8.422990 3.806389 3.263109 2.456253 
